<?xml version="1.0" encoding="utf-8"?>
<!-- Generator: Adobe Illustrator 26.1.0, SVG Export Plug-In . SVG Version: 6.00 Build 0)  -->
<svg version="1.1" id="saskatoon-logo" xmlns="http://www.w3.org/2000/svg" xmlns:xlink="http://www.w3.org/1999/xlink" x="0px"
	 y="0px" viewBox="0 0 246 60.1" style="enable-background:new 0 0 246 60.1;" xml:space="preserve">
<style type="text/css">
	.st0{fill:#1F61AC;}
	.st1{fill:#FFFFFF;}
	.st2{fill:#ED2B39;}
	.st3{fill:#1F62AB;}
	.st4{fill:#FCB631;}
</style>
<g>
	<path class="st0" d="M244.6,34.6c-1.2-1.6-2.9-2.4-5.1-2.4c-2.9,0-5.4,1.6-6.8,4.2v-3.7h-4.8v22.3h5V43.6c0-0.9,0.1-1.8,0.2-2.6
		c0.2-0.9,0.6-1.7,1.2-2.4c0.9-1,2.2-1.6,3.6-1.6c0.8,0,1.7,0.3,2.3,0.9s0.8,1.6,0.8,2.9v14h5V39.5C246,37.4,245.5,35.7,244.6,34.6z
		"/>
	<path class="st0" d="M99.2,32c-2.4,0-4.7,0.4-6.8,1.7l0,4.6c0,0,2.6-1.8,6-1.8c2.6,0,4.8,1.2,4.8,4.4v1.3c-1.5-1.1-3.3-1.7-5.2-1.7
		c-4.5,0-7.8,3-7.8,7.3c0,3.9,2.8,7.3,7.3,7.3c3,0,5-1.6,6.1-2.9v2.4h4.5V41C108.3,34.7,104.7,32,99.2,32z M99.3,51.1
		c-2.1,0-4-1.3-4-3.4s1.8-3.5,4-3.5s4,1.3,4,3.4C103.2,49.6,101.3,51.1,99.3,51.1z M103.3,43.9L103.3,43.9
		C103.3,43.9,103.3,43.9,103.3,43.9L103.3,43.9z"/>
	<path class="st0" d="M153.6,32c-2.4,0-4.7,0.4-6.8,1.7l0,4.6c0,0,2.6-1.8,6-1.8c2.6,0,4.8,1.2,4.8,4.4v1.3
		c-1.5-1.1-3.3-1.7-5.2-1.7c-4.5,0-7.8,3-7.8,7.3c0,3.9,2.8,7.3,7.3,7.3c3,0,5-1.6,6.1-2.9v2.4h4.5V41C162.7,34.7,159.1,32,153.6,32
		z M153.6,51.1c-2.1,0-4-1.3-4-3.4s1.8-3.5,4-3.5c2.2,0,4,1.3,4,3.4C157.6,49.6,155.7,51.1,153.6,51.1z M157.7,43.9L157.7,43.9
		C157.7,43.9,157.7,43.9,157.7,43.9L157.7,43.9L157.7,43.9z"/>
	<rect x="127.7" y="32.5" class="st0" width="5" height="22.2"/>
	<path class="st0" d="M144.8,32.5l-5.5,0l-5.7,11.1c0,0,5.7,11.2,5.7,11.2h5.7l-6.2-11.3L144.8,32.5z"/>
	<polygon class="st0" points="163.8,36.7 168.3,36.7 168.3,54.8 173.3,54.8 173.3,36.7 177.7,36.7 177.7,32.6 163.8,32.6 	"/>
	<path class="st0" d="M189.3,32c-6.5,0-11.6,5-11.6,11.6c0,6.5,5,11.6,11.6,11.6c6.5,0,11.6-5.1,11.6-11.6
		C200.9,37.1,195.8,32,189.3,32z M189.3,50.4c-3.7,0-6.5-3-6.5-6.7s2.9-6.7,6.5-6.7c3.7,0,6.5,3,6.5,6.7
		C195.8,47.4,193.1,50.4,189.3,50.4z"/>
	<path class="st0" d="M214.3,32c-6.5,0-11.6,5-11.6,11.6c0,6.5,5,11.6,11.6,11.6c6.5,0,11.6-5.1,11.6-11.6
		C225.9,37.1,220.8,32,214.3,32z M214.3,50.4c-3.7,0-6.5-3-6.5-6.7s2.9-6.7,6.5-6.7c3.7,0,6.5,3,6.5,6.7
		C220.8,47.4,218.1,50.4,214.3,50.4z"/>
	<path class="st0" d="M78.6,38.6c0-1.1,1.1-2.1,3-2.1c2.8,0,5.6,1.8,5.6,1.8l0.1-4.7c0,0-2.1-1.5-5.8-1.5c-5.1,0-7.8,3.1-7.8,6.4
		c0,7.4,10.2,6,10.2,9.9c0,1.6-1.5,2.4-3.7,2.4c-2.1,0-4.2-0.6-6-1.7l0,5c0,0,2.3,1.2,6.5,1.2c5.4,0,8.2-3.3,8.2-7.1
		C88.8,40.8,78.6,42.4,78.6,38.6z"/>
	<path class="st0" d="M115.3,38.6c0-1.1,1.1-2.1,3-2.1c2.8,0,5.6,1.8,5.6,1.8l0.1-4.7c0,0-2.1-1.5-5.8-1.5c-5.1,0-7.8,3.1-7.8,6.4
		c0,7.4,10.2,6,10.2,9.9c0,1.6-1.5,2.4-3.7,2.4c-2.1,0-4.2-0.6-6-1.7l0,5c0,0,2.3,1.2,6.5,1.2c5.4,0,8.2-3.3,8.2-7.1
		C125.5,40.8,115.3,42.4,115.3,38.6z"/>
	<rect x="95.4" y="4.9" class="st0" width="4.7" height="22.2"/>
	<path class="st0" d="M148.4,4.4c-6.5,0-11.6,5-11.6,11.6c0,6.5,5,11.6,11.6,11.6c6.5,0,11.6-5.1,11.6-11.6
		C160,9.4,155,4.4,148.4,4.4z M148.4,22.7c-3.7,0-6.5-3-6.5-6.7s2.8-6.7,6.5-6.7c3.7,0,6.5,3,6.5,6.7S152.2,22.7,148.4,22.7
		L148.4,22.7z"/>
	<polygon class="st0" points="176,4.9 170.5,20.2 164.9,4.9 159.3,4.9 167.8,27.1 173,27.1 181.6,4.9 	"/>
	<path class="st0" d="M215.6,4.4c-2.9,0-4.8,1.7-5.7,4V4.9h-4.8v22.3h5V15.8c0-2.2,0.4-3.6,1.3-4.6c1-1.1,2.4-1.6,3.9-1.6
		c1.5,0,2.1,0.2,2.1,0.2V4.6C216.8,4.4,216.2,4.4,215.6,4.4z"/>
	<path class="st0" d="M82.2,4.9h-8.1v22.2h7.7c6.8,0,11.1-3.9,11.1-10.9C93,8.6,88.4,4.9,82.2,4.9z M81.6,22.3h-2.8V9.5h3
		c4,0,6.3,2.6,6.3,6.3C88.1,19.8,85.7,22.3,81.6,22.3L81.6,22.3z"/>
	<path class="st0" d="M130.5,22.6c-3.6,0-6.5-3-6.5-6.6c0-3.7,2.7-6.8,6.4-6.8c2.2,0,3.3,0.6,4.6,1.3l2-4.1c-1.9-1.4-4.9-2-6.6-2
		c-6.8,0-11.5,5-11.5,11.6c0,6.5,4.7,11.6,11.5,11.6c2.5,0,5-0.7,6.7-2.2l-1.8-4.3C134.2,22,132.6,22.6,130.5,22.6z"/>
	<path class="st0" d="M192,4.4c-6.4,0-11.2,4.9-11.2,11.6c0,7,4.6,11.6,11.9,11.6c5.3,0,8-2.1,8-2.1l-0.1-4.9c0,0-2.5,2.1-7.5,2.1
		c-3.6,0-6.4-1.9-7.1-5h16.8c0.1-0.8,0.1-1.5,0.1-2.3c0-1.9-0.4-4.4-1.7-6.3C199.1,6.1,195.7,4.4,192,4.4z M192,9.2
		c3.2,0,5.2,1.8,5.8,4.6h-11.9C186.6,11.2,188.8,9.2,192,9.2z"/>
	<path class="st0" d="M107.5,11c0-1.1,1.1-2.1,3-2.1c2.8,0,5.3,1.7,5.3,1.7l1.7-4.4c-2.2-1.1-4.6-1.7-7-1.8c-5.1,0-7.8,3.1-7.8,6.4
		c0,7.4,10.1,6.1,10.1,9.7c0,1.4-1.3,2.4-3.8,2.4c-3,0-5.8-1.6-5.8-1.6l0,4.9c0,0,2.5,1.4,6.5,1.4c5.4,0,8.2-3.3,8.2-7.1
		C117.7,13.1,107.5,14.8,107.5,11z"/>
	<polygon class="st0" points="221.9,27.1 220.1,27.1 220.1,15.9 227.3,15.9 227.3,17.6 221.9,17.6 	"/>
	<rect x="235.1" y="16.1" class="st0" width="1.8" height="8.2"/>
	<path class="st0" d="M238.6,27.6c-1.9,0-3.5-1.6-3.4-3.5c0-1.9,1.6-3.5,3.5-3.4c1.9,0,3.4,1.6,3.4,3.5
		C242.1,26,240.5,27.6,238.6,27.6z M238.6,22.4c-0.9,0-1.7,0.8-1.7,1.7s0.8,1.7,1.7,1.7c0.9,0,1.7-0.8,1.7-1.7
		C240.3,23.2,239.5,22.4,238.6,22.4z"/>
	<path class="st0" d="M244.6,22.7c-0.3,0-1.5-0.1-2.3-0.9c-0.4-0.4-0.9-1.2-0.9-2.4v-0.2c0-1.3,0.5-2,0.9-2.4
		c0.9-0.9,2.2-0.9,2.4-0.9h1.2v1.8h-1.3c-0.1,0-0.7,0-1.1,0.4c-0.3,0.2-0.4,0.6-0.4,1.1v0.2c0,0.5,0.1,0.9,0.4,1.1
		c0.4,0.4,1.1,0.4,1.1,0.4h1.3v1.8H244.6L244.6,22.7z"/>
	<path class="st0" d="M234.3,21.5h-1.8v-1.8c0-0.3-0.1-0.6-0.3-0.9c-0.2-0.2-0.5-0.3-0.9-0.3H231c-0.4,0-0.7,0.1-0.9,0.3
		c-0.2,0.3-0.3,0.6-0.3,0.9v1.8H228v-1.8c0-0.2,0-1.3,0.8-2.2c0.4-0.4,1.1-0.8,2.2-0.8h0.2c1.2,0,1.8,0.5,2.2,0.8
		c0.8,0.8,0.8,2,0.8,2.2V21.5z"/>
	<circle class="st1" cx="30.1" cy="30.1" r="30.1"/>
	<path class="st2" d="M2.5,32c0.1,1,0.2,2,0.4,3c0.6-0.1,1.2-0.1,1.9-0.1c4.9,0,9.3,2.8,11.4,7.2h2.1c3-6.3,10.5-9,16.9-6
		c2.6,1.2,4.7,3.4,6,6h2.1c2.5-5.2,8.2-8.1,13.9-7c0.2-1.1,0.3-2.1,0.4-3.2H2.5z"/>
	<path class="st3" d="M28.5,50.5l-5.7-2.4l3.2-5H5.7C11.6,54,24,59.7,36,57l-3.1-1.3l0.3-0.4l0.3-0.4l4.1,1.7
		c0.9-0.3,1.9-0.6,2.8-0.9l-5.8-2.4l0.3-0.4l0.3-0.4l6.6,2.7c0.8-0.4,1.5-0.8,2.3-1.2l-7.8-3.2l0.3-0.4l0.3-0.4l8.3,3.5
		c0.6-0.4,1.3-0.8,1.9-1.3l-15.3-6.4L28.5,50.5z"/>
	<path class="st3" d="M24.2,47.7l3.9,1.6l3-4.8l16.5,6.9c2.8-2.3,5.1-5.1,6.8-8.2H27L24.2,47.7z"/>
	<path class="st4" d="M28.8,21.5v-19c-3,0.1-6,0.8-8.8,1.9l7.3,17.4C27.8,21.6,28.3,21.6,28.8,21.5z"/>
	<path class="st4" d="M25,22.4L17.8,5.3c-2.6,1.3-5,3-7.1,5.1l12.8,12.8C23.9,22.9,24.4,22.6,25,22.4z"/>
	<path class="st4" d="M32.8,21.9L40,4.3c-2.8-1.1-5.8-1.7-8.9-1.8v19.1C31.7,21.6,32.3,21.7,32.8,21.9z"/>
	<path class="st4" d="M36.5,23.4l12.9-13c-2.1-2.1-4.6-3.8-7.2-5.1l-7.1,17.4C35.6,22.9,36.1,23.2,36.5,23.4z"/>
	<path class="st4" d="M39.6,26.2l16-6.6c-1.1-2.7-2.6-5.2-4.5-7.4L38.4,24.9C38.8,25.3,39.2,25.8,39.6,26.2z"/>
	<path class="st4" d="M3.7,21.8c-0.8,2.6-1.2,5.2-1.3,7.9H18c0.2-0.5,0.4-1.1,0.7-1.6L3.7,21.8z"/>
	<path class="st4" d="M21.5,24.6L9,12.2c-1.9,2.2-3.4,4.7-4.5,7.3L20,26.1C20.5,25.5,20.9,25,21.5,24.6z"/>
	<path class="st4" d="M56.4,21.9L41,28.3c0.2,0.4,0.4,0.9,0.6,1.4h16.1C57.6,27,57.2,24.4,56.4,21.9z"/>
</g>
</svg>
